<svg width="32" height="32" viewBox="0 0 32 32" fill="none" xmlns="http://www.w3.org/2000/svg">
<path d="M28 27C28 27.2652 27.8947 27.5196 27.7071 27.7071C27.5196 27.8946 27.2653 28 27 28H9.00004C8.73482 28 8.48047 27.8946 8.29293 27.7071C8.10539 27.5196 8.00004 27.2652 8.00004 27C8.00004 26.7348 8.10539 26.4804 8.29293 26.2929C8.48047 26.1054 8.73482 26 9.00004 26H27C27.2653 26 27.5196 26.1054 27.7071 26.2929C27.8947 26.4804 28 26.7348 28 27ZM26 12.5H19.22L13.8686 6.66211C13.8217 6.61102 13.7648 6.57022 13.7013 6.54231C13.6379 6.51441 13.5693 6.5 13.5 6.5H11.3875C11.1498 6.49999 10.9155 6.55647 10.7039 6.66477C10.4924 6.77307 10.3096 6.9301 10.1706 7.12292C10.0316 7.31574 9.94042 7.53882 9.90457 7.77379C9.86873 8.00876 9.88923 8.24888 9.96439 8.47437L11.3063 12.5H8.23417L5.88419 9.67993C5.83726 9.62362 5.77852 9.57831 5.71214 9.54722C5.64575 9.51612 5.57334 9.50001 5.50004 9.5H3.34404C3.1102 9.50001 2.87961 9.55469 2.67067 9.65967C2.46173 9.76465 2.28022 9.91703 2.14065 10.1046C2.00107 10.2922 1.90729 10.5099 1.86679 10.7402C1.82629 10.9705 1.84019 11.2071 1.90739 11.431L3.66593 17.2931C3.94003 18.2224 4.50851 19.0375 5.28582 19.6159C6.06314 20.1942 7.00725 20.5045 7.97611 20.5H30C30.1326 20.5 30.2598 20.4473 30.3536 20.3535C30.4473 20.2598 30.5 20.1326 30.5 20V17C30.4987 15.8069 30.0242 14.6631 29.1805 13.8195C28.3369 12.9759 27.1931 12.5013 26 12.5Z" fill="#0C0C0D"/>
</svg>
