<svg width="32" height="32" viewBox="0 0 32 32" fill="none" xmlns="http://www.w3.org/2000/svg">
<path d="M25.999 3.99951H22.999V2.99951C22.999 2.7343 22.8937 2.47994 22.7061 2.29241C22.5186 2.10487 22.2642 1.99951 21.999 1.99951C21.7338 1.99951 21.4795 2.10487 21.2919 2.29241C21.1044 2.47994 20.999 2.7343 20.999 2.99951V3.99951H10.999V2.99951C10.999 2.7343 10.8937 2.47994 10.7061 2.29241C10.5186 2.10487 10.2642 1.99951 9.99902 1.99951C9.73381 1.99951 9.47945 2.10487 9.29192 2.29241C9.10438 2.47994 8.99902 2.7343 8.99902 2.99951V3.99951H5.99902C5.46875 4.00004 4.96035 4.21092 4.58539 4.58588C4.21043 4.96084 3.99955 5.46924 3.99902 5.99951V25.9995C3.99955 26.5298 4.21043 27.0382 4.58539 27.4131C4.96035 27.7881 5.46875 27.999 5.99902 27.9995H25.999C26.5293 27.999 27.0377 27.7881 27.4127 27.4131C27.7876 27.0382 27.9985 26.5298 27.999 25.9995V5.99951C27.9985 5.46924 27.7876 4.96084 27.4127 4.58588C27.0377 4.21092 26.5293 4.00004 25.999 3.99951ZM25.999 9.99951H5.99902V5.99951H8.99902V6.99951C8.99902 7.26473 9.10438 7.51908 9.29192 7.70662C9.47945 7.89415 9.73381 7.99951 9.99902 7.99951C10.2642 7.99951 10.5186 7.89415 10.7061 7.70662C10.8937 7.51908 10.999 7.26473 10.999 6.99951V5.99951H20.999V6.99951C20.999 7.26473 21.1044 7.51908 21.2919 7.70662C21.4795 7.89415 21.7338 7.99951 21.999 7.99951C22.2642 7.99951 22.5186 7.89415 22.7061 7.70662C22.8937 7.51908 22.999 7.26473 22.999 6.99951V5.99951H25.999V9.99951Z" fill="#0C0C0D"/>
</svg>
