<svg width="32" height="32" viewBox="0 0 32 32" fill="none" xmlns="http://www.w3.org/2000/svg">
<path d="M13 23.9999C12.8686 24.0001 12.7386 23.9743 12.6172 23.9241C12.4959 23.8738 12.3857 23.8001 12.2929 23.7071L5.29295 16.7076C5.20008 16.6148 5.12642 16.5046 5.07615 16.3832C5.02589 16.2619 5.00001 16.1319 5 16.0006C4.99999 15.8692 5.02584 15.7392 5.07609 15.6179C5.12633 15.4966 5.19998 15.3863 5.29283 15.2934C5.38567 15.2006 5.49591 15.1269 5.61722 15.0767C5.73854 15.0264 5.86857 15.0005 5.99989 15.0005C6.13121 15.0005 6.26125 15.0263 6.38258 15.0766C6.5039 15.1268 6.61415 15.2005 6.70701 15.2933L13 21.5857L26.2928 8.29339C26.4804 8.10607 26.7347 8.00089 26.9998 8.00098C27.2649 8.00106 27.5191 8.1064 27.7066 8.29385C27.894 8.48129 27.9994 8.73549 27.9995 9.00059C27.9996 9.26568 27.8944 9.51998 27.7071 9.70757L13.7071 23.7071C13.6144 23.8001 13.5041 23.8738 13.3828 23.924C13.2614 23.9743 13.1313 24.0001 13 23.9999Z" fill="#00B33C"/>
</svg>
