<svg width="32" height="32" viewBox="0 0 32 32" fill="none" xmlns="http://www.w3.org/2000/svg">
<path d="M25.9993 3.99976H22.9993V2.99976C22.9993 2.73454 22.8939 2.48019 22.7064 2.29265C22.5188 2.10511 22.2645 1.99976 21.9993 1.99976C21.7341 1.99976 21.4797 2.10511 21.2922 2.29265C21.1046 2.48019 20.9993 2.73454 20.9993 2.99976V3.99976H10.9993V2.99976C10.9993 2.73454 10.8939 2.48019 10.7064 2.29265C10.5188 2.10511 10.2645 1.99976 9.99927 1.99976C9.73405 1.99976 9.4797 2.10511 9.29216 2.29265C9.10462 2.48019 8.99927 2.73454 8.99927 2.99976V3.99976H5.99927C5.469 4.00028 4.96059 4.21116 4.58563 4.58612C4.21067 4.96108 3.99979 5.46948 3.99927 5.99976V25.9998C3.99979 26.53 4.21067 27.0384 4.58563 27.4134C4.96059 27.7884 5.469 27.9992 5.99927 27.9998H25.9993C26.5295 27.9992 27.0379 27.7884 27.4129 27.4134C27.7879 27.0384 27.9987 26.53 27.9993 25.9998V5.99976C27.9987 5.46948 27.7879 4.96108 27.4129 4.58612C27.0379 4.21116 26.5295 4.00028 25.9993 3.99976ZM25.9993 9.99976H5.99927V5.99976H8.99927V6.99976C8.99927 7.26497 9.10462 7.51933 9.29216 7.70686C9.4797 7.8944 9.73405 7.99976 9.99927 7.99976C10.2645 7.99976 10.5188 7.8944 10.7064 7.70686C10.8939 7.51933 10.9993 7.26497 10.9993 6.99976V5.99976H20.9993V6.99976C20.9993 7.26497 21.1046 7.51933 21.2922 7.70686C21.4797 7.8944 21.7341 7.99976 21.9993 7.99976C22.2645 7.99976 22.5188 7.8944 22.7064 7.70686C22.8939 7.51933 22.9993 7.26497 22.9993 6.99976V5.99976H25.9993V9.99976Z" fill="#0C0C0D"/>
</svg>
