<svg width="32" height="32" viewBox="0 0 32 32" fill="none" xmlns="http://www.w3.org/2000/svg">
<path d="M16 32C24.8366 32 32 24.8366 32 16C32 7.16344 24.8366 0 16 0C7.16344 0 0 7.16344 0 16C0 24.8366 7.16344 32 16 32Z" fill="#FECC00"/>
<path d="M11.2649 15.9059C11.1484 16.0454 10.9534 16.2878 10.8347 16.4295C10.7745 16.5015 10.6657 16.6323 11.0264 16.6323C11.408 16.6323 12.9253 16.6323 12.9253 16.6323C12.9253 16.6323 13.2314 16.2642 13.4879 15.9564C13.8369 15.5377 13.5181 14.6665 12.2704 14.6665C11.1537 14.6665 7.35674 14.6665 7.35674 14.6665L6.50476 15.6897C6.50476 15.6897 10.9215 15.6897 11.1482 15.6897C11.3827 15.6897 11.3795 15.7685 11.2649 15.9059ZM9.86988 16.8847C9.50921 16.8847 9.61801 16.7536 9.67824 16.6816C9.7969 16.54 9.99506 16.3 10.1116 16.1606C10.2263 16.0232 10.2293 15.9444 9.99461 15.9444C9.76807 15.9444 7.87096 15.9444 7.87096 15.9444L6.15987 17.9998C6.15987 17.9998 9.21591 17.9998 10.3327 17.9998C11.7109 17.9998 12.4782 17.1713 12.7147 16.8848C12.7147 16.8847 10.2513 16.8847 9.86988 16.8847ZM12.5844 17.9998H15.0323L15.9603 16.8845L13.5127 16.8848C13.5119 16.8847 12.5844 17.9998 12.5844 17.9998ZM18.9002 14.6665L17.9613 15.7938H16.8688L17.8073 14.6665H15.3602L13.723 16.6323H19.7103L21.3471 14.6665H18.9002ZM16.1247 17.9998H18.5717L19.5002 16.8848H17.0532C17.0523 16.8847 16.1247 17.9998 16.1247 17.9998ZM2.66699 17.3246V17.5614H6.07612L6.27306 17.3246H2.66699ZM6.6395 16.8847H2.66699V17.1212H6.44209L6.6395 16.8847ZM2.66699 17.9998H5.7109L5.90693 17.7643H2.66699V17.9998ZM25.7412 17.5613H29.3337V17.3244H25.9385L25.7412 17.5613ZM25.3763 17.9998H29.3337V17.7643H25.5722L25.3763 17.9998ZM26.3043 16.8847L26.1075 17.1215H29.3337V16.8847H26.3043V16.8847ZM23.0991 16.6323L24.7362 14.6665H22.1444C22.1435 14.6665 20.5062 16.6323 20.5062 16.6323H23.0991ZM20.2963 16.8847C20.2963 16.8847 20.1174 17.1007 20.0305 17.2048C19.7232 17.5717 19.995 17.9998 20.9979 17.9998C22.1566 17.9998 24.928 17.9998 24.928 17.9998L25.8564 16.8848H20.2963V16.8847Z" fill="#D50029"/>
</svg>
