<svg width="30" height="32" viewBox="0 0 30 32" fill="none" xmlns="http://www.w3.org/2000/svg">
<g clip-path="url(#clip0_358_5795)">
<path d="M22.8979 7.65294C22.8806 7.62889 22.4672 7.05992 21.7359 6.91014C21.0729 6.7744 19.5611 6.76671 19.4971 6.76647C19.3931 6.7661 19.2971 6.75841 19.2517 6.75255C19.2079 6.71678 19.1189 6.62938 19.0602 6.55687L16.0937 2.89232C16.0296 2.8131 15.899 2.66381 15.8159 2.60668C15.6739 2.50853 15.3096 2.53246 15.2686 2.53551L15.1879 2.54149C15.0779 2.54967 14.8792 2.57164 14.7845 2.62718C14.7283 2.66002 14.5576 2.76012 14.7151 3.24596C14.7151 3.24596 15.8457 6.73339 15.8502 6.74877C15.8334 6.74974 14.2239 6.75035 14.2239 6.75035C14.1176 6.75035 14.0197 6.74291 13.9743 6.73729C13.9296 6.70311 13.8366 6.61656 13.7758 6.54503L12.7295 5.31407C12.7221 5.30541 12.5479 5.10131 12.4378 5.03429C12.2903 4.94469 12.007 4.99047 12.0042 4.99095C11.9234 5.00609 11.8096 5.04454 11.7376 5.0963C11.6077 5.18981 11.5856 5.39464 11.6721 5.70507C11.9071 6.54747 12.2423 7.79625 12.2671 7.98741C12.2423 8.17858 11.907 9.42736 11.6721 10.2698C11.6538 10.3356 11.5952 10.5596 11.6133 10.6759C11.6504 10.915 11.9898 10.9812 12.0042 10.9839C12.0888 10.9997 12.2039 11.0047 12.2777 10.996C12.4546 10.9746 12.6851 10.7129 12.7295 10.6608L13.7758 9.42968C13.8439 9.34972 13.9127 9.28051 13.9458 9.25035C14.001 9.23888 14.1282 9.22448 14.2239 9.22448C14.2239 9.22448 15.8338 9.22472 15.8496 9.22521C15.8454 9.24157 14.7152 12.7289 14.7152 12.7289C14.6813 12.8336 14.6265 13.0255 14.6415 13.1337C14.6657 13.3075 14.8495 13.4082 15.188 13.4333L15.2686 13.4393C15.3199 13.4431 15.3955 13.4469 15.4706 13.4469C15.5447 13.4469 15.6181 13.4432 15.667 13.4327C15.8357 13.3964 16.0679 13.1145 16.0938 13.0825L19.0603 9.41796C19.1258 9.33715 19.1919 9.26696 19.2248 9.23522C19.2799 9.22338 19.4038 9.20873 19.4971 9.20836C19.5611 9.20812 21.073 9.20043 21.736 9.06469C22.4673 8.91478 22.8808 8.34594 22.898 8.32177C23.0341 8.13109 23.0341 7.84362 22.8979 7.65294Z" fill="#0C0C0D"/>
<path d="M10.1898 5.67691H8.94678C8.68201 5.67691 8.46741 5.89395 8.46741 6.16177C8.46741 6.42947 8.68201 6.64663 8.94678 6.64663H10.1898C10.4546 6.64663 10.6693 6.42947 10.6693 6.16177C10.6693 5.89395 10.4546 5.67691 10.1898 5.67691Z" fill="#0C0C0D"/>
<path d="M10.1898 9.45608H8.94678C8.68201 9.45608 8.46741 9.67312 8.46741 9.94082C8.46741 10.2086 8.68201 10.4257 8.94678 10.4257H10.1898C10.4546 10.4257 10.6693 10.2086 10.6693 9.94082C10.6693 9.67312 10.4546 9.45608 10.1898 9.45608Z" fill="#0C0C0D"/>
<path d="M10.1898 7.56643H7.47949C7.21472 7.56643 7 7.7836 7 8.0513C7 8.31912 7.21472 8.53616 7.47949 8.53616H10.1898C10.4546 8.53616 10.6693 8.31912 10.6693 8.0513C10.6693 7.7836 10.4546 7.56643 10.1898 7.56643Z" fill="#0C0C0D"/>
</g>
<path d="M4.61719 26.6364L2.36719 21.4545H1.03764V28H2.04332V22.8991L4.2081 28H5.02628L7.19105 22.9929V28H8.19673V21.4545H6.90128L4.61719 26.6364ZM11.0433 26.517V21.4545H10.0376V28H11.2138L14.3501 22.9375V28H15.3558V21.4545H14.1967L11.0433 26.517ZM16.6183 28H16.9592C18.408 28 18.8256 26.875 18.9194 24.7273L19.0217 22.392H21.4251V28H22.4308V21.4545H18.0671L17.9478 24.3523C17.8626 26.5511 17.641 27.0625 16.8569 27.0625H16.6183V28ZM25.2816 23.8239V21.4545H24.2759V28H27.0202C28.5543 28 29.3896 27.0625 29.3896 25.8864C29.3896 24.6932 28.5543 23.8239 27.0202 23.8239H25.2816ZM25.2816 24.7614H27.0202C27.8171 24.7614 28.3839 25.2472 28.3839 25.9375C28.3839 26.598 27.8171 27.0625 27.0202 27.0625H25.2816V24.7614Z" fill="#0C0C0D" fill-opacity="0.48"/>
<defs>
<clipPath id="clip0_358_5795">
<rect width="16" height="16" fill="white" transform="translate(7)"/>
</clipPath>
</defs>
</svg>
