<svg width="54" height="51" viewBox="0 0 54 51" fill="none" xmlns="http://www.w3.org/2000/svg">
<path fill-rule="evenodd" clip-rule="evenodd" d="M10 19H44V25H10V19ZM11.6721 23.3636H18.3607H20.0328H26.1639H27.8361H35.082H36.7541H42.3279V20.6364H36.7541H35.082H27.8361H26.1639H20.0328H18.3607H11.6721V23.3636Z" fill="black"/>
<path d="M49.3163 49.3548V17H53.1735V1.91935C53.1735 0.861077 52.3083 0 51.2449 0H2.7551C1.69174 0 0.826531 0.861077 0.826531 1.91935V17H4.68367V49.3548H0V51H54V49.3548H49.3163ZM2.47959 15.3548V6.03226V4.3871V1.91935C2.47959 1.77074 2.60578 1.64516 2.7551 1.64516H15.1531V11.7903H16.8061V1.64516H26.1735V11.7903H27.8265V1.64516H37.1939V11.7903H38.8469V1.64516H51.2449C51.3942 1.64516 51.5204 1.77074 51.5204 1.91935V4.3871V6.03226V15.3548H2.47959ZM42.1531 49.3548H11.8469V46.0645H42.1531V49.3548ZM42.1531 44.4194H11.8469V39.4839H42.1531V44.4194ZM42.1531 37.8387H11.8469V32.9032H42.1531V37.8387ZM42.1531 31.2581H11.8469V27.9677H42.1531V31.2581ZM47.6633 49.3548H43.8061V26.3226H10.1939V49.3548H6.33673V17H47.6633V49.3548Z" fill="black"/>
</svg>
