<svg width="24" height="12" viewBox="0 0 24 12" fill="none" xmlns="http://www.w3.org/2000/svg">
<path fill-rule="evenodd" clip-rule="evenodd" d="M2.27752 8.446C1.24469 8.446 0.774621 8.7423 0.589241 9.36246L0 11.3332H20.0739C21.1068 11.3332 21.5768 11.0369 21.7622 10.4167L22.3514 8.446H2.27752ZM4.69407 5.69665H3.70097C2.15172 5.69665 3.27724 2.27202 4.58152 2.27202H6.15062C6.40221 2.27202 6.84579 2.32025 7.06428 1.67253L7.40193 0.666504H5.25021C4.08497 0.666504 3.17793 1.09372 2.52248 1.81035C1.39034 3.03687 1.00634 4.95246 1.27779 5.86892C1.536 6.71646 2.23779 7.2746 3.33683 7.28838L4.1909 7.29527H5.24359L5.50179 6.48907C5.69379 5.91715 5.26345 5.69665 4.69407 5.69665ZM16.7834 4.27718L17.1079 3.18158H13.6452C13.0692 3.18158 12.811 3.34695 12.7117 3.69148L12.3873 4.78709H15.8499C16.4259 4.78709 16.6841 4.62171 16.7834 4.27718ZM11.8709 6.20656L11.5465 7.30216H15.0091C15.5785 7.30216 15.8433 7.13679 15.9426 6.79226L16.267 5.69665H12.8044C12.235 5.69665 11.9768 5.86202 11.8709 6.20656V6.20656ZM17.5912 1.769L17.9156 0.673394H14.453C13.877 0.673394 13.6188 0.838769 13.5194 1.1833L13.195 2.27891H16.6577C17.227 2.27891 17.4852 2.11353 17.5912 1.769ZM12.3608 1.9895C12.2152 0.969691 11.6921 0.673394 10.421 0.673394H8.10372L6.7531 4.78709H7.60717C8.11697 4.78709 8.37517 4.79398 8.64662 4.03601L9.20938 2.27202H10.0701C10.805 2.27202 10.6394 3.22981 10.2687 4.16004C9.93766 4.98003 9.36166 5.70354 8.66648 5.70354H7.22979C6.65379 5.70354 6.38897 5.86892 6.28303 6.21345L5.92552 7.30905H6.97821L8.01103 7.30216C8.92469 7.29527 9.67283 7.22637 10.5468 6.40638C11.4737 5.53128 12.5462 3.28494 12.3608 1.9895V1.9895ZM24 0.666504H21.9939L20.107 2.75436C19.8886 2.99553 19.6634 3.2367 19.445 3.51922H19.4251L20.3652 0.666504H18.7299L16.5252 7.30216H18.1606L18.8623 5.21431L19.5906 4.57348L20.1666 6.46151C20.3454 7.04721 20.5308 7.30216 20.928 7.30216H22.1793L20.8949 3.59501L24 0.666504V0.666504Z" fill="#00B33C"/>
<path d="M2.18487 10.0859V10.6303H1.89355V9.12126H2.46955C2.63507 9.12126 2.76749 9.1626 2.86018 9.25218C2.95286 9.34176 3.00583 9.4589 3.00583 9.6036C3.00583 9.7483 2.95949 9.86544 2.86018 9.95502C2.76749 10.0446 2.63507 10.0859 2.46955 10.0859H2.18487V10.0859ZM2.18487 9.85166H2.46955C2.549 9.85166 2.60859 9.83099 2.65493 9.78276C2.69466 9.73452 2.71452 9.6794 2.71452 9.61049C2.71452 9.53469 2.69466 9.47957 2.65493 9.43134C2.61521 9.3831 2.549 9.36243 2.46955 9.36243H2.18487V9.85166ZM3.83342 10.3064H3.32362L3.22431 10.6303H2.933L3.42955 9.12126H3.72749L4.22404 10.6303H3.93273L3.83342 10.3064V10.3064ZM3.39645 10.0653H3.76059L3.58183 9.47268H3.57521L3.39645 10.0653ZM5.28997 9.35554H4.64776V9.65184H4.89935C5.06487 9.65184 5.19728 9.70007 5.29659 9.78965C5.3959 9.87923 5.44224 9.99637 5.44224 10.1411C5.44224 10.2858 5.3959 10.4029 5.29659 10.4925C5.19728 10.5821 5.06487 10.6303 4.89935 10.6303H4.34321V9.12126H5.28997V9.35554V9.35554ZM4.64776 9.88612V10.396H4.89935C4.9788 10.396 5.045 10.3685 5.08473 10.3202C5.12445 10.272 5.15093 10.21 5.15093 10.1342C5.15093 10.0653 5.13107 10.0033 5.08473 9.95502C5.03838 9.90679 4.9788 9.87923 4.89935 9.87923H4.64776V9.88612ZM6.80611 10.0101C6.80611 10.1962 6.75314 10.3478 6.64059 10.4718C6.52804 10.5958 6.38238 10.651 6.20362 10.651C6.02486 10.651 5.87921 10.589 5.76666 10.4718C5.65411 10.3547 5.60114 10.1962 5.60114 10.0101V9.74141C5.60114 9.55537 5.65411 9.40377 5.76666 9.27974C5.87921 9.15571 6.02486 9.10059 6.20362 9.10059C6.38238 9.10059 6.52804 9.1626 6.64059 9.27974C6.75314 9.39688 6.81273 9.55537 6.81273 9.74141V10.0101H6.80611ZM6.5148 9.74141C6.5148 9.62427 6.48831 9.5278 6.42873 9.45201C6.36914 9.37621 6.29631 9.34176 6.197 9.34176C6.09769 9.34176 6.01824 9.37621 5.96528 9.45201C5.91231 9.5278 5.88583 9.62427 5.88583 9.74141V10.017C5.88583 10.1342 5.91231 10.2375 5.96528 10.3064C6.01824 10.3822 6.09769 10.4167 6.197 10.4167C6.29631 10.4167 6.37576 10.3822 6.42873 10.3064C6.48169 10.2306 6.5148 10.1342 6.5148 10.017V9.74141ZM7.99783 9.35554H7.58735V10.6303H7.29604V9.35554H6.88555V9.12126H7.99121V9.35554H7.99783ZM8.83866 10.3064H8.32886L8.22955 10.6303H7.93824L8.4348 9.12126H8.73273L9.22928 10.6303H8.93797L8.83866 10.3064ZM8.40169 10.0653H8.76583L8.58707 9.47268H8.58045L8.40169 10.0653V10.0653ZM10.2621 9.9688H9.65962V10.396H10.3614V10.6303H9.36831V9.12126H10.3614V9.35554H9.65962V9.73452H10.2621V9.9688ZM10.9176 9.12126L11.2883 10.2306H11.2949L11.6657 9.12126H12.0431V10.6303H11.7518V10.1824L11.7782 9.51402H11.7716L11.381 10.6303H11.189L10.805 9.52091H10.7984L10.8249 10.1824V10.6303H10.5336V9.12126H10.9176V9.12126ZM12.8243 10.6303V9.12126H13.3142C13.4864 9.12126 13.6188 9.15571 13.7115 9.22462C13.8042 9.29352 13.8571 9.39688 13.8571 9.53469C13.8571 9.6036 13.8373 9.66562 13.8042 9.72074C13.7711 9.77587 13.7181 9.81721 13.6519 9.84477C13.738 9.86544 13.8042 9.90679 13.8505 9.9688C13.8969 10.0308 13.9167 10.1066 13.9167 10.1893C13.9167 10.334 13.8704 10.4443 13.7777 10.5201C13.685 10.5958 13.5592 10.6303 13.3871 10.6303H12.8243V10.6303ZM13.1156 9.75519H13.3275C13.4069 9.75519 13.4665 9.74141 13.5062 9.70696C13.546 9.67251 13.5658 9.62427 13.5658 9.56226C13.5658 9.49335 13.546 9.43823 13.4996 9.41066C13.4599 9.37621 13.3937 9.36243 13.3142 9.36243H13.1156V9.75519V9.75519ZM13.1156 9.96191V10.396H13.3805C13.4599 10.396 13.5129 10.3753 13.5592 10.3409C13.6056 10.3064 13.6188 10.2513 13.6188 10.1893C13.6188 10.1135 13.5989 10.0584 13.5658 10.017C13.5327 9.97569 13.4798 9.96191 13.4003 9.96191H13.1156V9.96191ZM15.2276 10.1135C15.2342 10.2789 15.1879 10.4098 15.0886 10.5063C14.9893 10.6027 14.8569 10.651 14.6781 10.651C14.506 10.651 14.3603 10.5958 14.2544 10.4787C14.1485 10.3616 14.0889 10.21 14.0889 10.0308V9.73452C14.0889 9.54848 14.1418 9.40377 14.2478 9.28663C14.3537 9.16949 14.4927 9.10748 14.6649 9.10748C14.8436 9.10748 14.9827 9.15571 15.082 9.25218C15.1813 9.34865 15.2342 9.47957 15.2276 9.64494V9.65184H14.9429C14.9429 9.55537 14.9231 9.47957 14.8767 9.42444C14.8304 9.36932 14.7576 9.34865 14.6649 9.34865C14.5788 9.34865 14.506 9.3831 14.4596 9.4589C14.4067 9.53469 14.3802 9.62427 14.3802 9.74141V10.0446C14.3802 10.1617 14.4067 10.2513 14.4596 10.3271C14.5126 10.4029 14.5854 10.4374 14.6781 10.4374C14.7708 10.4374 14.837 10.4098 14.8767 10.3616C14.9231 10.3133 14.9429 10.2375 14.9429 10.1342H15.2276V10.1135ZM16.3267 9.9688H15.7242V10.396H16.426V10.6303H15.4329V9.12126H16.426V9.35554H15.7242V9.73452H16.3267V9.9688ZM17.5515 9.35554H16.896V10.6303H16.6047V9.12126H17.5515V9.35554V9.35554ZM18.8955 11.0024H18.6307V10.6303H17.7435V11.0024H17.4787L17.4588 10.396H17.5713C17.6243 10.3478 17.6707 10.2789 17.7104 10.1755C17.7501 10.0791 17.77 9.92746 17.7766 9.73452L17.8163 9.11437H18.7565V10.3891H18.9286L18.8955 11.0024V11.0024ZM18.0547 9.74141C18.048 9.89301 18.0282 10.0239 18.0017 10.1273C17.9752 10.2375 17.9355 10.3271 17.8891 10.396H18.4585V9.35554H18.0811L18.0547 9.74141V9.74141ZM19.882 10.3064H19.3722L19.2729 10.6303H18.9816L19.4781 9.12126H19.776L20.2726 10.6303H19.9813L19.882 10.3064V10.3064ZM19.445 10.0653H19.8091L19.6304 9.47268H19.6238L19.445 10.0653ZM20.6963 10.1066H20.405V9.12126H20.6963V10.1066ZM20.6963 10.6303H20.405V10.3685H20.6963V10.6303Z" fill="white"/>
</svg>
