<svg width="64" height="64" viewBox="0 0 64 64" fill="none" xmlns="http://www.w3.org/2000/svg">
<path d="M59.5199 28.9574L57.8625 22.4073C58.3156 22.3122 58.6556 21.915 58.6556 21.4391V20.383C58.6556 18.09 56.7675 16.2246 54.4469 16.2246H46.8978V14.0462C46.8978 12.9179 45.9688 12 44.8268 12H6.34651C5.20451 12 4.27551 12.9179 4.27551 14.0462V32.0002C4.27551 32.5469 4.72413 32.9903 5.27764 32.9903C5.83101 32.9903 6.27976 32.5471 6.27976 32.0002V14.0462C6.27976 14.0099 6.30964 13.9803 6.34651 13.9803H44.8267C44.8636 13.9803 44.8935 14.01 44.8935 14.0462V32.0004C44.8935 32.5472 45.3421 32.9906 45.8956 32.9906C46.449 32.9906 46.8977 32.5473 46.8977 32.0004V30.878H58.7189C58.7199 30.878 58.7206 30.8783 58.7215 30.8783C58.7225 30.8783 58.7234 30.8781 58.7242 30.8781C60.1789 30.8791 61.414 31.8225 61.8382 33.1224H58.7222C58.1689 33.1224 57.7201 33.5656 57.7201 34.1125V36.2247C57.7201 37.9354 59.1286 39.327 60.86 39.327H61.9958V43.6834H59.3755C58.5147 41.2276 56.1521 39.4589 53.3777 39.4589C50.6034 39.4589 48.2406 41.2276 47.38 43.6834H46.8975V36.2246C46.8975 35.6778 46.4488 35.2344 45.8953 35.2344C45.342 35.2344 44.8932 35.6777 44.8932 36.2246V43.6832H24.1022C23.2414 41.2274 20.8788 39.4587 18.1044 39.4587C15.33 39.4587 12.9673 41.2274 12.1066 43.6832H6.34651C6.30964 43.6832 6.27976 43.6534 6.27976 43.6172V41.4389H10.6221C11.1755 41.4389 11.6243 40.9957 11.6243 40.4488C11.6243 39.9019 11.1756 39.4587 10.6221 39.4587H5.27839C5.27814 39.4587 5.27801 39.4587 5.27776 39.4587C5.27751 39.4587 5.27739 39.4587 5.27714 39.4587H1.00213C0.448751 39.4587 0 39.9019 0 40.4488C0 40.9957 0.448626 41.4389 1.00213 41.4389H4.27563V43.6172C4.27563 44.7456 5.20464 45.6634 6.34664 45.6634H11.7596C11.7594 45.6854 11.7579 45.7074 11.7579 45.7294C11.7579 49.1869 14.605 52 18.1044 52C21.6038 52 24.4509 49.1869 24.4509 45.7294C24.4509 45.7074 24.4494 45.6854 24.4492 45.6634H47.033C47.0327 45.6854 47.0312 45.7074 47.0312 45.7294C47.0312 49.1869 49.8783 52 53.3777 52C56.8771 52 59.7242 49.1869 59.7242 45.7294C59.7242 45.7074 59.7227 45.6854 59.7225 45.6634H62.9979C63.5513 45.6634 64 45.2202 64 44.6733V34.1123C64.0001 31.5048 62.053 29.3384 59.5199 28.9574ZM46.8978 18.2048H54.4469C55.6625 18.2048 56.6515 19.182 56.6515 20.383V20.449H46.8978V18.2048ZM46.8978 28.8979V22.4292H55.8022L57.439 28.8979H46.8978ZM18.1044 50.0201C15.71 50.0201 13.762 48.0955 13.762 45.7296C13.762 43.3638 15.71 41.4392 18.1044 41.4392C20.4988 41.4392 22.4468 43.3638 22.4468 45.7296C22.4468 48.0955 20.4988 50.0201 18.1044 50.0201ZM53.378 50.0201C50.9836 50.0201 49.0356 48.0955 49.0356 45.7296C49.0356 43.3638 50.9836 41.4392 53.378 41.4392C55.7724 41.4392 57.7204 43.3638 57.7204 45.7296C57.7204 48.0955 55.7724 50.0201 53.378 50.0201ZM61.996 37.3467H60.8602C60.234 37.3467 59.7245 36.8433 59.7245 36.2246V35.1024H61.9959V37.3467H61.996Z" fill="black"/>
<path d="M18 44C16.8972 44 16 44.8972 16 46C16 47.1028 16.8972 48 18 48C19.1028 48 20 47.1028 20 46C20 44.8972 19.1028 44 18 44Z" fill="black"/>
<path d="M53 44C51.8972 44 51 44.8972 51 46C51 47.1028 51.8972 48 53 48C54.1028 48 55 47.1028 55 46C55 44.8972 54.1028 44 53 44Z" fill="black"/>
<path d="M41.996 40H27.004C26.4496 40 26 40.4477 26 41C26 41.5523 26.4495 42 27.004 42H41.996C42.5504 42 43 41.5523 43 41C43 40.4477 42.5506 40 41.996 40Z" fill="black"/>
<path d="M15.9865 35H3.01354C2.45386 35 2 35.4477 2 36C2 36.5523 2.45374 37 3.01354 37H15.9865C16.5461 37 17 36.5523 17 36C17 35.4477 16.5461 35 15.9865 35Z" fill="black"/>
<path d="M25.5 17C20.2617 17 16 21.2617 16 26.5C16 31.7383 20.2617 36 25.5 36C30.7383 36 35 31.7383 35 26.5C35 21.2617 30.7383 17 25.5 17ZM25.5 34.007C21.3607 34.007 17.9931 30.6394 17.9931 26.5001C17.9931 22.3608 21.3607 18.9932 25.5 18.9932C29.6393 18.9932 33.0069 22.3608 33.0069 26.5001C33.0069 30.6394 29.6393 34.007 25.5 34.007Z" fill="black"/>
<path d="M29.7184 28.3771L26.9231 25.6133V21.9507C26.9231 21.4257 26.4927 21 25.9616 21C25.4305 21 25 21.4256 25 21.9507V26.0072C25 26.2593 25.1012 26.501 25.2816 26.6793L28.3585 29.7215C28.5462 29.9071 28.7923 30 29.0383 30C29.2843 30 29.5305 29.9073 29.7181 29.7215C30.0939 29.3502 30.0939 28.7484 29.7184 28.3771Z" fill="black"/>
</svg>
